PathFileType	4	(X/Y/Z)	C:/Users/opensim2020/Desktop/walking_exp_matlab/subject06_walking12_straigt_02.trc																																																																																																																																														
DataRate	CameraRate	NumFrames	NumMarkers	Units	OrigDataRate	OrigDataStartFrame	OrigNumFrames																																																																																																																																										
100	100	4	48	mm	100	1440	215																																																																																																																																										
Frame#	Time	LFHD			RFHD			LBHD			RBHD			C7			T10			CLAV			STRN			RBAK			LSHO			LUPA			LELB			LFRM			LWRA			LWRB			LFIN			RSHO			RUPA			RELB			RFRM			RWRA			RWRB			RFIN			LASI			RASI			LPSI			RPSI			LTHI			LKNE			LTIB			LANK			LHEE			LTOE			RTHI			RKNE			RTIB			RANK			RHEE			RTOE			*39			*40			*41			*42			*43			*44			*45			*46			*47		
		X1	Y1	Z1	X2	Y2	Z2	X3	Y3	Z3	X4	Y4	Z4	X5	Y5	Z5	X6	Y6	Z6	X7	Y7	Z7	X8	Y8	Z8	X9	Y9	Z9	X10	Y10	Z10	X11	Y11	Z11	X12	Y12	Z12	X13	Y13	Z13	X14	Y14	Z14	X15	Y15	Z15	X16	Y16	Z16	X17	Y17	Z17	X18	Y18	Z18	X19	Y19	Z19	X20	Y20	Z20	X21	Y21	Z21	X22	Y22	Z22	X23	Y23	Z23	X24	Y24	Z24	X25	Y25	Z25	X26	Y26	Z26	X27	Y27	Z27	X28	Y28	Z28	X29	Y29	Z29	X30	Y30	Z30	X31	Y31	Z31	X32	Y32	Z32	X33	Y33	Z33	X34	Y34	Z34	X35	Y35	Z35	X36	Y36	Z36	X37	Y37	Z37	X38	Y38	Z38	X39	Y39	Z39	X40	Y40	Z40	X41	Y41	Z41	X42	Y42	Z42	X43	Y43	Z43	X44	Y44	Z44	X45	Y45	Z45	X46	Y46	Z46	X47	Y47	Z47	X48	Y48	Z48
																																																																																																																																																	
1	0	-1442.521	1674.82654	1316.3634	-1311.18018	1660.0957	1318.50403	-1446.11292	1619.30017	1449.38184	-1317.68066	1610.57227	1450.14441	-1388.75183	1458.9718	1449.63794	-1375.34265	1131.39563	1485.2854	-1390.93359	1383.06287	1338.33911	-1395.90894	1206.7467	1299.64685	-1304.24158	1290.28796	1519.97461	-1551.29272	1412.43018	1402.24646	-1615.53857	1210.06885	1432.10291	-1620.87817	1099.29248	1452.59595	-1640.24792	948.54095	1448.50989	-1599.72986	828.39777	1397.98816	-1630.78662	829.33252	1461.84973	-1631.88953	743.66034	1431.39636	-1228.68872	1417.36047	1379.79773	-1139.26404	1217.06372	1392.00647	-1127.06519	1098.87012	1360.38086	-1116.4436	992.09973	1305.82666	-1161.03284	886.6236	1202.79163	-1116.42041	866.97504	1248.96582	-1120.39758	811.9245	1185.76477	-1488.30725	972.41718	1311.64807	-1269.96472	972.36383	1308.76892	-1460.41711	995.96118	1472.42273	-1291.62378	997.7489	1461.10938	-1565.90857	670.84198	1301.89954	-1548.1272	518.37054	1242.93372	-1542.28613	289.99164	1346.60437	-1507.8656	124.99866	1399.65479	-1455.14795	116.69585	1433.3512	-1532.89197	57.14983	1275.65625	-1235.94788	633.5083	1370.13391	-1267.16895	509.17145	1372.72156	-1286.84082	251.55244	1451.44031	-1345.4165	73.50143	1490.59717	-1391.75171	51.48118	1531.40369	-1342.42737	36.83371	1339.94055	-1383.44653	1711.10596	1417.74072	NaN	NaN	NaN	NaN	NaN	NaN	NaN	NaN	NaN	NaN	NaN	NaN	NaN	NaN	NaN	NaN	NaN	NaN	NaN	NaN	NaN	NaN	NaN	NaN
2	0.01	-1443.81958	1673.92615	1306.81311	-1312.41418	1659.45557	1309.06396	-1447.35303	1618.29236	1439.79724	-1318.87964	1609.82068	1440.63428	-1389.65784	1458.1864	1440.00647	-1375.9126	1130.5647	1475.73682	-1391.61682	1382.16577	1328.75183	-1396.07874	1205.87183	1290.12341	-1304.74475	1289.69177	1510.4873	-1552.06897	1411.30261	1392.5094	-1615.95435	1209.32813	1424.93457	-1620.83252	1098.91931	1447.09668	-1639.31543	947.98029	1445.93213	-1597.13513	826.31982	1399.56763	-1629.63159	829.17828	1462.24109	-1629.70056	742.79169	1433.89233	-1229.56396	1416.8385	1370.32788	-1139.66589	1216.83008	1381.43811	-1127.08862	1099.05151	1348.41809	-1117.01746	993.70844	1291.60889	-1162.27283	891.29291	1185.8833	-1117.61609	870.36041	1231.34009	-1121.78101	816.95532	1166.5741	-1488.31128	971.92175	1301.80725	-1270.12427	971.34235	1299.99036	-1461.34009	995.15796	1462.57324	-1292.48474	996.81903	1452.04932	-1566.90662	670.74487	1290.81628	-1548.802	518.43646	1231.16223	-1543.83313	284.82123	1324.64783	-1509.81555	117.09653	1368.78931	-1457.59619	107.36273	1402.6333	-1535.13684	56.60801	1241.35571	-1236.74487	632.59747	1363.42505	-1267.69824	508.26089	1367.56287	-1287.08997	251.35126	1448.96216	-1345.55151	73.58023	1490.03992	-1391.70764	51.69013	1531.31775	-1342.23303	36.95683	1339.94275	-1384.89087	1710.24304	1408.26831	NaN	NaN	NaN	NaN	NaN	NaN	NaN	NaN	NaN	NaN	NaN	NaN	NaN	NaN	NaN	NaN	NaN	NaN	NaN	NaN	NaN	NaN	NaN	NaN
3	0.02	-1445.05261	1672.90747	1297.22827	-1313.68945	1658.76819	1299.50281	-1448.60535	1617.18933	1430.15442	-1320.10437	1609.0166	1431.12634	-1390.51379	1457.22864	1430.32385	-1376.47437	1129.59839	1466.1012	-1392.32532	1381.23865	1319.0564	-1396.26685	1204.94604	1280.56982	-1305.24744	1289.00659	1500.8634	-1552.81519	1410.11816	1382.83484	-1616.4165	1208.65015	1417.75562	-1620.8667	1098.50171	1441.47974	-1638.47144	947.51996	1443.1189	-1594.77246	825.10742	1400.21863	-1629.05054	829.52576	1462.43323	-1627.38928	742.13947	1435.75244	-1230.40808	1416.30334	1360.78247	-1140.10254	1216.51208	1370.82568	-1127.39478	1099.05994	1336.70471	-1117.57556	995.28778	1277.52271	-1163.51099	895.89355	1169.3313	-1118.60742	873.68958	1214.13037	-1123.1792	822.04156	1148.0686	-1488.82532	971.46869	1291.37329	-1270.32788	970.2027	1290.89392	-1462.2832	994.22052	1452.62415	-1293.45313	995.85431	1442.84473	-1567.70691	670.16394	1280.30298	-1549.66406	518.08954	1219.98169	-1545.56299	279.49268	1302.3772	-1511.79602	109.658	1337.58289	-1459.62976	98.13009	1371.08752	-1536.59766	56.25355	1206.83801	-1237.52942	631.72748	1356.62793	-1268.12219	507.30298	1362.44495	-1287.33325	251.19112	1446.46997	-1345.56384	73.66898	1489.69543	-1391.68201	51.93768	1531.2627	-1342.25098	36.84163	1339.79822	-1386.33374	1709.30896	1398.7605	NaN	NaN	NaN	NaN	NaN	NaN	NaN	NaN	NaN	NaN	NaN	NaN	NaN	NaN	NaN	NaN	NaN	NaN	NaN	NaN	NaN	NaN	NaN	NaN
4	0.03	-1446.3136	1671.78735	1287.64783	-1314.93372	1657.90723	1289.96619	-1449.8584	1615.97607	1420.45752	-1321.42786	1608.10718	1421.62952	-1391.37244	1456.19434	1420.62231	-1377.11646	1128.54407	1456.42957	-1393.02026	1380.16223	1309.3678	-1396.49402	1203.90833	1270.87146	-1305.78003	1288.14771	1491.15991	-1553.62109	1408.88721	1373.1593	-1616.87341	1207.93469	1410.56555	-1620.81165	1098.08508	1435.73132	-1637.61792	947.0705	1440.0166	-1592.47253	824.07336	1400.41821	-1628.16772	829.72028	1461.88269	-1625.3147	741.5694	1436.9314	-1231.29517	1415.59973	1351.27527	-1140.52747	1216.104	1360.1958	-1127.53906	1099.17505	1325.01099	-1118.10034	996.78351	1263.49622	-1164.73071	900.36072	1153.01477	-1119.72083	876.82166	1197.29675	-1124.62683	827.03033	1129.63171	-1488.70752	970.41406	1281.6947	-1270.4436	968.91656	1282.97888	-1463.25696	993.18164	1442.57239	-1294.36548	994.85608	1433.48413	-1568.6167	669.23737	1270.32288	-1550.45874	517.35779	1209.39441	-1547.19788	274.37036	1279.91028	-1514.33582	103.17966	1306.58704	-1462.05396	89.55626	1339.20837	-1537.35425	56.22422	1172.12488	-1238.31775	630.67303	1349.78625	-1268.52808	506.25272	1357.28162	-1287.69397	250.95895	1444.03894	-1345.52441	73.81066	1489.53406	-1391.67371	52.22187	1531.23132	-1342.26147	36.71865	1339.67139	-1387.76636	1708.24146	1389.203	NaN	NaN	NaN	NaN	NaN	NaN	NaN	NaN	NaN	NaN	NaN	NaN	NaN	NaN	NaN	NaN	NaN	NaN	NaN	NaN	NaN	NaN	NaN	NaN
